<svg xmlns="http://www.w3.org/2000/svg" viewBox="0 0 84 84" version="1.1" xml:space="preserve" style="" x="0px" y="0px" fill-rule="evenodd" clip-rule="evenodd" stroke-linejoin="round" stroke-miterlimit="1.41421"><g transform="matrix(1,0,0,1,-7,-2)"><path d="M40.156,9.875C41.332,9.887 42.506,9.975 43.669,10.153C45.827,10.483 47.938,11.109 49.927,12.009C52.356,13.108 54.597,14.613 56.537,16.44C58.508,18.298 60.165,20.485 61.415,22.888C62.486,24.946 63.256,27.159 63.693,29.438C64.184,31.997 64.257,34.636 63.911,37.218C63.583,39.678 62.87,42.084 61.806,44.326C60.581,46.907 58.894,49.264 56.85,51.259C54.699,53.36 52.158,55.054 49.389,56.226C46.474,57.46 43.321,58.104 40.156,58.125C36.985,58.145 33.818,57.54 30.883,56.339C28.098,55.201 25.535,53.536 23.358,51.46C21.291,49.49 19.577,47.154 18.321,44.59C17.231,42.364 16.49,39.971 16.131,37.519C15.76,34.99 15.792,32.402 16.226,29.883C16.613,27.64 17.32,25.454 18.321,23.41C19.535,20.932 21.176,18.668 23.15,16.741C25.09,14.846 27.349,13.28 29.806,12.132C31.782,11.209 33.882,10.557 36.032,10.201C37.191,10.009 38.36,9.905 39.534,9.879C39.741,9.876 39.948,9.875 40.156,9.875ZM39.884,16.125C39.011,16.134 38.14,16.199 37.276,16.331C35.681,16.575 34.12,17.038 32.649,17.703C30.849,18.518 29.187,19.634 27.749,20.989C26.313,22.342 25.101,23.932 24.18,25.676C23.397,27.16 22.825,28.754 22.488,30.397C22.085,32.364 22.017,34.4 22.283,36.39C22.522,38.173 23.033,39.918 23.794,41.548C24.706,43.5 25.975,45.282 27.516,46.788C29.111,48.345 30.994,49.602 33.047,50.471C35.206,51.385 37.54,51.86 39.884,51.875C42.233,51.889 44.578,51.443 46.752,50.554C48.816,49.71 50.716,48.475 52.329,46.937C53.888,45.45 55.177,43.684 56.113,41.744C56.893,40.126 57.425,38.39 57.685,36.613C57.977,34.626 57.933,32.588 57.555,30.615C57.232,28.93 56.662,27.294 55.87,25.772C54.96,24.022 53.757,22.425 52.329,21.063C50.925,19.725 49.305,18.615 47.548,17.794C46.088,17.112 44.535,16.63 42.945,16.366C42.086,16.224 41.218,16.148 40.347,16.128C40.193,16.126 40.038,16.125 39.884,16.125Z" style="" fill="black" fill-rule="nonzero"/></g><g transform="matrix(0.707107,-0.707107,0.597816,0.597816,-15.573,81.5935)"><path d="M70.357,21.572C70.467,21.731 70.571,21.889 70.662,22.064C70.843,22.412 70.974,22.794 71.049,23.192C71.087,23.39 71.111,23.593 71.12,23.796C71.123,23.864 71.123,23.932 71.125,24L71.125,64C71.12,64.205 71.111,64.406 71.082,64.608C71.026,65.01 70.912,65.401 70.748,65.759C70.336,66.661 69.608,67.331 68.767,67.583C68.489,67.667 68.201,67.704 67.914,67.695C67.569,67.684 67.227,67.605 66.904,67.462C66.528,67.295 66.179,67.042 65.883,66.719C65.588,66.397 65.345,66.008 65.174,65.577C65.027,65.209 64.932,64.812 64.894,64.407C64.877,64.227 64.879,64.181 64.875,64L64.875,24C64.88,23.795 64.889,23.594 64.918,23.392C64.974,22.99 65.088,22.599 65.252,22.241C65.416,21.882 65.63,21.557 65.883,21.281C66.095,21.051 66.333,20.855 66.589,20.702C67.363,20.239 68.284,20.179 69.096,20.538C69.418,20.681 69.721,20.888 69.987,21.147C70.105,21.262 70.13,21.296 70.24,21.423C70.279,21.473 70.318,21.522 70.357,21.572Z" style="" fill="black" fill-rule="nonzero"/></g><g transform="matrix(-1.11022e-16,-1,0.571122,-1.49998e-16,7.86997,100)"><path d="M70.357,21.572C70.467,21.731 70.571,21.889 70.662,22.064C70.843,22.412 70.974,22.794 71.049,23.192C71.087,23.39 71.111,23.593 71.12,23.796C71.123,23.864 71.123,23.932 71.125,24L71.125,64C71.12,64.205 71.111,64.406 71.082,64.608C71.026,65.01 70.912,65.401 70.748,65.759C70.336,66.661 69.608,67.331 68.767,67.583C68.489,67.667 68.201,67.704 67.914,67.695C67.569,67.684 67.227,67.605 66.904,67.462C66.528,67.295 66.179,67.042 65.883,66.719C65.588,66.397 65.345,66.008 65.174,65.577C65.027,65.209 64.932,64.812 64.894,64.407C64.877,64.227 64.879,64.181 64.875,64L64.875,24C64.88,23.795 64.889,23.594 64.918,23.392C64.974,22.99 65.088,22.599 65.252,22.241C65.416,21.882 65.63,21.557 65.883,21.281C66.095,21.051 66.333,20.855 66.589,20.702C67.363,20.239 68.284,20.179 69.096,20.538C69.418,20.681 69.721,20.888 69.987,21.147C70.105,21.262 70.13,21.296 70.24,21.423C70.279,21.473 70.318,21.522 70.357,21.572Z" style="" fill="black" fill-rule="nonzero"/></g><g transform="matrix(-1,4.979e-17,-1.15027e-16,-0.571122,101,57.1302)"><path d="M70.357,21.572C70.467,21.731 70.571,21.889 70.662,22.064C70.843,22.412 70.974,22.794 71.049,23.192C71.087,23.39 71.111,23.593 71.12,23.796C71.123,23.864 71.123,23.932 71.125,24L71.125,64C71.12,64.205 71.111,64.406 71.082,64.608C71.026,65.01 70.912,65.401 70.748,65.759C70.336,66.661 69.608,67.331 68.767,67.583C68.489,67.667 68.201,67.704 67.914,67.695C67.569,67.684 67.227,67.605 66.904,67.462C66.528,67.295 66.179,67.042 65.883,66.719C65.588,66.397 65.345,66.008 65.174,65.577C65.027,65.209 64.932,64.812 64.894,64.407C64.877,64.227 64.879,64.181 64.875,64L64.875,24C64.88,23.795 64.889,23.594 64.918,23.392C64.974,22.99 65.088,22.599 65.252,22.241C65.416,21.882 65.63,21.557 65.883,21.281C66.095,21.051 66.333,20.855 66.589,20.702C67.363,20.239 68.284,20.179 69.096,20.538C69.418,20.681 69.721,20.888 69.987,21.147C70.105,21.262 70.13,21.296 70.24,21.423C70.279,21.473 70.318,21.522 70.357,21.572Z" style="" fill="black" fill-rule="nonzero"/></g></svg>
